<?xml version="1.0" encoding="UTF-8"?>
<svg version="1.1" xmlns="http://www.w3.org/2000/svg" width="1024" height="1024">
<path d="M0 0 C337.92 0 675.84 0 1024 0 C1024 337.92 1024 675.84 1024 1024 C686.08 1024 348.16 1024 0 1024 C0 686.08 0 348.16 0 0 Z " fill="#FEFEFE" transform="translate(0,0)"/>
<path d="M0 0 C2.31736301 -0.00299591 4.63472553 -0.00639943 6.9520874 -0.01017761 C13.22098318 -0.0189784 19.48986529 -0.02135409 25.75876665 -0.0219934 C29.68339077 -0.02270619 33.60801147 -0.02484487 37.53263474 -0.02749062 C50.54088864 -0.03625547 63.54913401 -0.04091194 76.55739088 -0.04016014 C77.25678197 -0.04012019 77.95617306 -0.04008023 78.67675781 -0.04003906 C79.37701652 -0.03999818 80.07727523 -0.0399573 80.7987539 -0.03991518 C92.13459906 -0.03950916 103.47041093 -0.04907078 114.80624647 -0.06317743 C126.4842638 -0.07759361 138.16226495 -0.08444473 149.84029138 -0.08358365 C156.38110813 -0.08332976 162.92188719 -0.08612048 169.46269608 -0.0967617 C175.62039501 -0.10650689 181.7780207 -0.10647821 187.93572235 -0.09924507 C190.18252801 -0.09820713 192.42933838 -0.10051453 194.67613602 -0.10660553 C209.6942291 -0.14464889 224.25689602 0.57633202 239.07568359 3.14526367 C239.07568359 3.80526367 239.07568359 4.46526367 239.07568359 5.14526367 C239.96255859 5.70213867 240.84943359 6.25901367 241.76318359 6.83276367 C247.9526139 10.81793931 250.48955935 16.46121227 252.59521484 23.32495117 C253.7750959 30.25075704 252.98935047 36.87320273 251.54443359 43.68823242 C251.31137512 44.84637199 251.31137512 44.84637199 251.0736084 46.02790833 C250.5824795 48.46460992 250.08013209 50.89878758 249.57568359 53.33276367 C249.07227928 55.77762902 248.57154686 58.2229275 248.07775879 60.66975403 C247.77199328 62.18354898 247.46070185 63.69624209 247.14294434 65.20756531 C246.50946723 68.33209236 246.07626473 71.20991012 246.10498047 74.40429688 C246.07568359 77.14526367 246.07568359 77.14526367 245.17941284 78.83509827 C243.64591219 82.04479861 243.06548136 85.38180751 242.38671875 88.84887695 C242.22986603 89.6256781 242.07301331 90.40247925 241.91140747 91.20281982 C241.39048401 93.78935922 240.87767081 96.37743974 240.36474609 98.96557617 C239.99772174 100.79518278 239.63014668 102.62467898 239.26205444 104.45407104 C238.4781775 108.35490348 237.69769761 112.25639378 236.91992188 116.15844727 C235.69253386 122.31538704 234.4573683 128.47074829 233.22021484 134.62573242 C233.01502102 135.64660824 232.80982719 136.66748405 232.59841537 137.7192955 C232.18504943 139.77567773 231.77164698 141.83205262 231.3582077 143.8884201 C230.7394686 146.96695684 230.12141943 150.04563148 229.503479 153.12432861 C226.42043014 168.47730945 223.27331362 183.81570753 220.07568359 199.14526367 C216.54632197 216.08197137 213.07878126 233.03014253 209.65771484 249.98901367 C209.46231991 250.95726074 209.26692497 251.92550781 209.06560898 252.9230957 C207.29384516 261.7032401 205.52248345 270.48346426 203.75952148 279.26538086 C199.87866278 298.59691546 195.96461591 317.92133205 191.87717247 337.2104187 C191.49861539 338.99952082 191.12196116 340.7890269 190.74744606 342.57897949 C185.95618428 365.44077712 178.69436051 386.42090551 167.94262695 407.23535156 C166.93790715 409.09921355 166.93790715 409.09921355 167.07568359 411.14526367 C166.07568359 412.14526367 165.07568359 413.14526367 164.07568359 414.14526367 C163.74568359 415.13526367 163.41568359 416.12526367 163.07568359 417.14526367 C161.76530425 418.83003711 160.42725034 420.49334876 159.07568359 422.14526367 C158.27560869 423.24335305 157.48439066 424.34793334 156.70068359 425.45776367 C131.92097207 460.37764384 96.58615108 485.33782446 54.07568359 493.14526367 C53.32416016 493.28657715 52.57263672 493.42789062 51.79833984 493.57348633 C3.2986426 502.561263 -52.18610646 498.64583969 -94.19042969 470.78222656 C-109.52638592 460.17316532 -121.09658266 446.50382282 -130.06884766 430.27026367 C-131.57280832 427.09570205 -131.57280832 427.09570205 -133.92431641 426.14526367 C-134.1659774 424.5135173 -134.39876339 422.88000835 -134.58886719 421.24145508 C-134.94949765 418.98790837 -135.55287493 416.94986636 -136.26416016 414.78198242 C-150.46908207 371.1858826 -138.06133459 325.74555109 -129.17431641 282.33276367 C-127.7952031 275.58931445 -126.42090279 268.84492863 -125.05565643 262.09865761 C-124.51321733 259.42877155 -123.96365748 256.76041932 -123.41363525 254.09208679 C-123.08255931 252.46168531 -122.75179272 250.83122097 -122.42138672 249.20068359 C-122.26870834 248.46986069 -122.11602997 247.73903778 -121.95872498 246.98606873 C-121.1547938 242.9773545 -120.77114089 239.23226728 -120.92431641 235.14526367 C-120.26431641 235.14526367 -119.60431641 235.14526367 -118.92431641 235.14526367 C-118.81216797 233.93354492 -118.70001953 232.72182617 -118.58447266 231.47338867 C-117.75814233 224.02912884 -116.13541374 216.722759 -114.65283203 209.38745117 C-114.43175781 208.27112305 -114.21068359 207.15479492 -113.98291016 206.00463867 C-113.77980225 204.99884766 -113.57669434 203.99305664 -113.36743164 202.95678711 C-112.94812526 200.29632853 -112.84099182 197.83255835 -112.92431641 195.14526367 C-112.26431641 195.14526367 -111.60431641 195.14526367 -110.92431641 195.14526367 C-110.88625381 194.59723083 -110.84819122 194.049198 -110.80897522 193.48455811 C-110.20723858 186.28493311 -108.87208874 179.3035056 -107.41103935 172.23361969 C-106.97343626 170.11502205 -106.54234057 167.99518674 -106.11280823 165.87493896 C-105.04640721 160.61713779 -103.97008057 155.3613818 -102.89233398 150.105896 C-101.97753306 145.64397832 -101.06738188 141.18116473 -100.16374397 136.71697235 C-99.7406834 134.63661285 -99.31081671 132.55773555 -98.88072205 130.4788208 C-98.62367996 129.21020203 -98.36663788 127.94158325 -98.10180664 126.63452148 C-97.87387924 125.52328918 -97.64595184 124.41205688 -97.41111755 123.26715088 C-96.92835544 120.17116628 -96.83559746 117.2729239 -96.92431641 114.14526367 C-96.26431641 114.14526367 -95.60431641 114.14526367 -94.92431641 114.14526367 C-94.81635742 112.96367676 -94.70839844 111.78208984 -94.59716797 110.56469727 C-93.83992789 103.78665617 -92.4753422 97.12149756 -91.15869141 90.43432617 C-91.02242592 89.73919292 -90.88616043 89.04405968 -90.74576569 88.32786179 C-90.02462562 84.65089381 -89.29887909 80.97487011 -88.56933594 77.29956055 C-87.82358578 73.53772847 -87.09402095 69.77294889 -86.36812973 66.0072422 C-85.80067295 63.07974562 -85.22098368 60.15476324 -84.63813019 57.23029709 C-84.3641448 55.84474541 -84.09461269 54.45830427 -83.82994843 53.07094193 C-80.64261759 36.41587239 -74.07054155 20.38060509 -59.92431641 10.14526367 C-55.16025735 7.18469508 -50.46609073 4.28459053 -44.92431641 3.14526367 C-44.21275391 2.98026367 -43.50119141 2.81526367 -42.76806641 2.64526367 C-28.64169393 -0.36836246 -14.36821162 -0.00371372 0 0 Z " fill="#234FA4" transform="translate(280.92431640625,236.854736328125)"/>
<path d="M0 0 C2.0320647 -0.00079248 4.06412924 -0.00289467 6.09619141 -0.00619507 C11.58034344 -0.01129791 17.06430549 0.0021487 22.5484271 0.01933193 C28.32139305 0.0344748 34.09435761 0.03319662 39.86734009 0.03399658 C49.56947016 0.03768162 59.27152918 0.05260219 68.97363281 0.07519531 C81.35795685 0.10397907 93.74222351 0.11441394 106.12657738 0.11887741 C116.84740905 0.12288672 127.56822867 0.13538856 138.28905153 0.14922428 C141.69717029 0.15328702 145.10528865 0.15623103 148.51340866 0.15901947 C204.71670773 0.21284824 204.71670773 0.21284824 225.51416016 2.35644531 C225.51416016 3.01644531 225.51416016 3.67644531 225.51416016 4.35644531 C226.52091797 4.46859375 227.52767578 4.58074219 228.56494141 4.69628906 C245.22798788 7.10303403 261.61742319 18.54228978 271.95947266 31.39550781 C277.00284033 38.20153608 280.79797028 45.31481229 283.51416016 53.35644531 C283.82095703 54.26394531 284.12775391 55.17144531 284.44384766 56.10644531 C294.70310556 91.28104384 281.02594687 134.19761999 264.51416016 165.35644531 C245.31946887 200.31278527 215.1416454 227.16943109 176.66040039 238.44848633 C158.09762456 243.68195017 139.82828607 244.50755491 120.65405273 244.50170898 C118.67823728 244.5047066 116.7024224 244.5081105 114.72660828 244.5118866 C109.39629499 244.52066495 104.06599778 244.52306197 98.73567796 244.52370238 C95.40024224 244.52441587 92.06481055 244.52655572 88.72937584 244.5291996 C77.07926552 244.53842936 65.42916659 244.54253706 53.77905273 244.54174805 C42.93910523 244.54114641 32.09920734 244.55172118 21.2592724 244.56749171 C11.92984179 244.5805786 2.6004274 244.58593153 -6.72901231 244.58529264 C-12.29146311 244.58503819 -17.85386966 244.5878607 -23.41631126 244.59847069 C-28.64406375 244.60817217 -33.87172981 244.60821679 -39.0994854 244.60095406 C-41.01262794 244.59991109 -42.92577592 244.60225391 -44.83890915 244.60831451 C-73.37633251 244.69283532 -73.37633251 244.69283532 -83.41162109 235.61425781 C-87.24114285 231.35517156 -87.24114285 231.35517156 -88.01318359 228.20410156 C-88.16916016 227.594375 -88.32513672 226.98464844 -88.48583984 226.35644531 C-89.14583984 226.02644531 -89.80583984 225.69644531 -90.48583984 225.35644531 C-90.48583984 223.04644531 -90.48583984 220.73644531 -90.48583984 218.35644531 C-91.47583984 218.35644531 -92.46583984 218.35644531 -93.48583984 218.35644531 C-94.11083984 216.04394531 -94.11083984 216.04394531 -94.48583984 213.35644531 C-93.82583984 212.36644531 -93.16583984 211.37644531 -92.48583984 210.35644531 C-92.15583984 210.35644531 -91.82583984 210.35644531 -91.48583984 210.35644531 C-90.76832489 206.31889706 -90.05642638 202.28040196 -89.34960938 198.2409668 C-89.10862082 196.86830245 -88.8661269 195.49590147 -88.62207031 194.1237793 C-88.27057017 192.14605297 -87.92501563 190.16727287 -87.57958984 188.18847656 C-87.37011719 186.99971924 -87.16064453 185.81096191 -86.94482422 184.58618164 C-86.54597965 181.77963118 -86.39261818 179.18339239 -86.48583984 176.35644531 C-85.82583984 176.35644531 -85.16583984 176.35644531 -84.48583984 176.35644531 C-84.38996582 175.07946777 -84.2940918 173.80249023 -84.1953125 172.48681641 C-83.37399511 164.33091881 -81.68668434 156.31153369 -80.13427734 148.27050781 C-79.79338547 146.48781216 -79.45286821 144.70504484 -79.11270142 142.92221069 C-78.21511376 138.22371088 -77.31219493 133.52625073 -76.40820312 128.82897949 C-75.51529782 124.18384076 -74.62784598 119.53766093 -73.73974609 114.89160156 C-69.36787711 92.03759712 -64.94145832 69.19425792 -60.48583984 46.35644531 C-61.14583984 47.01644531 -61.80583984 47.67644531 -62.48583984 48.35644531 C-61.73583984 43.60644531 -61.73583984 43.60644531 -59.48583984 41.35644531 C-58.79386821 38.81533939 -58.18132413 36.29934818 -57.61083984 33.73144531 C-54.80490749 21.9712685 -50.31577925 12.95517349 -39.92333984 6.04394531 C-27.51249133 -0.63729521 -13.67844273 -0.06921421 0 0 Z " fill="#F49B2E" transform="translate(574.48583984375,485.6435546875)"/>
<path d="M0 0 C0.84154627 -0.00297112 1.68309253 -0.00594224 2.5501402 -0.0090034 C5.34531154 -0.01761366 8.14043966 -0.01919213 10.93562317 -0.02069092 C12.95049123 -0.02532478 14.96535842 -0.03035019 16.98022461 -0.03573608 C22.43967208 -0.04881307 27.89910728 -0.0552966 33.35856795 -0.05974674 C36.77917057 -0.06268692 40.19976991 -0.06679362 43.62037086 -0.07125092 C54.35036267 -0.08491754 65.08034688 -0.09458656 75.81034678 -0.09845281 C88.14348536 -0.10292246 100.4765125 -0.12042304 112.80961722 -0.1494534 C122.37524612 -0.17117733 131.94084393 -0.18116287 141.5064972 -0.18249393 C147.20355514 -0.18353492 152.90050822 -0.18928988 158.5975399 -0.20731354 C163.96976048 -0.22397901 169.34179948 -0.22586164 174.71403694 -0.21717453 C176.66729092 -0.21641375 178.62055542 -0.2206172 180.57378387 -0.23063278 C214.1039008 -0.39224058 214.1039008 -0.39224058 223.16926575 4.14044189 C224.27270325 4.66895752 225.37614075 5.19747314 226.51301575 5.74200439 C234.54875155 9.63274615 242.0924401 13.63477717 249.16926575 19.14044189 C249.77770325 19.58516846 250.38614075 20.02989502 251.01301575 20.48809814 C263.41546421 30.15637047 270.65726945 45.34420216 275.10676575 60.07794189 C275.42435852 61.12437866 275.42435852 61.12437866 275.74836731 62.19195557 C276.99993529 66.64227117 277.3680441 70.52035117 277.16926575 75.14044189 C277.82926575 75.47044189 278.48926575 75.80044189 279.16926575 76.14044189 C279.16926575 86.37044189 279.16926575 96.60044189 279.16926575 107.14044189 C278.50926575 107.14044189 277.84926575 107.14044189 277.16926575 107.14044189 C277.20278137 108.13302002 277.236297 109.12559814 277.27082825 110.14825439 C277.16585429 114.27453836 276.5195933 118.02848632 275.54426575 122.01544189 C275.36605286 122.75012695 275.18783997 123.48481201 275.00422668 124.24176025 C266.1596143 159.38450312 246.09158166 189.92411116 215.00764465 209.05206299 C203.03467625 216.14044189 203.03467625 216.14044189 199.16926575 216.14044189 C199.16926575 217.13044189 199.16926575 218.12044189 199.16926575 219.14044189 C198.03489075 219.22294189 196.90051575 219.30544189 195.73176575 219.39044189 C190.19071192 219.98852389 184.8569013 221.32189472 179.46247864 222.68048096 C175.89918161 223.5629547 172.41649274 224.28142594 168.766922 224.70294189 C165.33957108 224.91530175 165.33957108 224.91530175 163.16926575 226.14044189 C161.62902579 226.20994731 160.08591587 226.22496547 158.54426575 226.20294189 C157.72700012 226.19391846 156.9097345 226.18489502 156.06770325 226.17559814 C155.12797668 226.1581958 155.12797668 226.1581958 154.16926575 226.14044189 C154.16926575 226.47044189 154.16926575 226.80044189 154.16926575 227.14044189 C145.25926575 227.14044189 136.34926575 227.14044189 127.16926575 227.14044189 C127.16926575 226.48044189 127.16926575 225.82044189 127.16926575 225.14044189 C122.21926575 225.47044189 117.26926575 225.80044189 112.16926575 226.14044189 C112.16926575 226.47044189 112.16926575 226.80044189 112.16926575 227.14044189 C100.28926575 227.14044189 88.40926575 227.14044189 76.16926575 227.14044189 C76.16926575 226.81044189 76.16926575 226.48044189 76.16926575 226.14044189 C56.36926575 226.14044189 36.56926575 226.14044189 16.16926575 226.14044189 C16.16926575 226.47044189 16.16926575 226.80044189 16.16926575 227.14044189 C13.19926575 227.14044189 10.22926575 227.14044189 7.16926575 227.14044189 C7.16926575 226.48044189 7.16926575 225.82044189 7.16926575 225.14044189 C5.51926575 225.47044189 3.86926575 225.80044189 2.16926575 226.14044189 C2.16926575 226.47044189 2.16926575 226.80044189 2.16926575 227.14044189 C-11.16406759 227.14044189 -24.49740092 227.14044189 -37.83073425 227.14044189 C-37.83073425 226.81044189 -37.83073425 226.48044189 -37.83073425 226.14044189 C-38.38422546 226.12062256 -38.93771667 226.10080322 -39.50798035 226.0803833 C-70.30643285 224.92023348 -70.30643285 224.92023348 -79.686203 216.46856689 C-86.48475625 208.88104574 -88.29432051 201.17751787 -87.83073425 191.14044189 C-87.45787563 188.1165805 -86.90422044 185.13907604 -86.326828 182.14825439 C-86.08864098 180.87065498 -86.08864098 180.87065498 -85.84564209 179.56724548 C-85.32708577 176.79855729 -84.79782238 174.03203913 -84.26823425 171.26544189 C-83.90651896 169.34453494 -83.54519477 167.4235543 -83.18424988 165.50250244 C-81.45065921 156.32703374 -79.6550607 147.1667249 -77.7408905 138.02716064 C-77.57793991 137.24768066 -77.41498932 136.46820068 -77.24710083 135.6651001 C-76.48346327 132.02432888 -75.70834149 128.38655754 -74.91447449 124.7522583 C-73.2319671 117.1766114 -73.2319671 117.1766114 -72.76823425 109.46466064 C-72.83073425 106.14044189 -72.83073425 106.14044189 -71.92887878 104.35406494 C-70.48134631 101.43615098 -69.96495762 98.59039661 -69.32292175 95.39825439 C-69.19257538 94.75226288 -69.062229 94.10627136 -68.92793274 93.44070435 C-68.65457765 92.07799931 -68.38411662 90.71471092 -68.11637878 89.35089111 C-67.70813203 87.27761896 -67.2876792 85.20708997 -66.8658905 83.13653564 C-66.60082787 81.80725585 -66.33648149 80.47783299 -66.07292175 79.14825439 C-65.83428406 77.94829834 -65.59564636 76.74834229 -65.34977722 75.51202393 C-64.74143524 72.1837263 -64.74143524 72.1837263 -64.87809753 68.95245361 C-64.82753438 65.95046206 -64.23891278 64.7234309 -62.83073425 62.14044189 C-62.35851739 60.27049751 -61.94583222 58.38502227 -61.576828 56.49200439 C-61.3621991 55.40403564 -61.14757019 54.31606689 -60.92643738 53.19512939 C-60.70923035 52.06333252 -60.49202332 50.93153564 -60.26823425 49.76544189 C-59.93662292 48.07934814 -59.93662292 48.07934814 -59.59831238 46.35919189 C-57.58965936 36.81915007 -57.58965936 36.81915007 -56.83073425 27.14044189 C-56.17073425 27.47044189 -55.51073425 27.80044189 -54.83073425 28.14044189 C-53.67756812 27.05530656 -53.67756812 27.05530656 -52.51823425 25.13653564 C-44.91585921 13.60978644 -35.18303871 5.52306781 -21.64323425 1.82794189 C-14.42273224 0.52588415 -7.33001603 -0.00826894 0 0 Z " fill="#F49B2E" transform="translate(632.8307342529297,236.85955810546875)"/>
<path d="M0 0 C0.84154627 -0.00297112 1.68309253 -0.00594224 2.5501402 -0.0090034 C5.34531154 -0.01761366 8.14043966 -0.01919213 10.93562317 -0.02069092 C12.95049123 -0.02532478 14.96535842 -0.03035019 16.98022461 -0.03573608 C22.43967208 -0.04881307 27.89910728 -0.0552966 33.35856795 -0.05974674 C36.77917057 -0.06268692 40.19976991 -0.06679362 43.62037086 -0.07125092 C54.35036267 -0.08491754 65.08034688 -0.09458656 75.81034678 -0.09845281 C88.14348536 -0.10292246 100.4765125 -0.12042304 112.80961722 -0.1494534 C122.37524612 -0.17117733 131.94084393 -0.18116287 141.5064972 -0.18249393 C147.20355514 -0.18353492 152.90050822 -0.18928988 158.5975399 -0.20731354 C163.96976048 -0.22397901 169.34179948 -0.22586164 174.71403694 -0.21717453 C176.66729092 -0.21641375 178.62055542 -0.2206172 180.57378387 -0.23063278 C214.1039008 -0.39224058 214.1039008 -0.39224058 223.16926575 4.14044189 C224.34489075 4.59419189 225.52051575 5.04794189 226.73176575 5.51544189 C227.86614075 6.05169189 229.00051575 6.58794189 230.16926575 7.14044189 C230.49926575 8.13044189 230.82926575 9.12044189 231.16926575 10.14044189 C225.87715551 9.18005894 220.79371171 7.60273711 215.641922 6.07794189 C209.36617723 4.38370259 203.51876656 3.99185727 197.06254578 3.99327087 C196.15525384 3.98959419 195.24796191 3.9859175 194.31317627 3.9821294 C191.27805838 3.97113113 188.24297477 3.96725528 185.20783997 3.96343994 C183.02940768 3.9571724 180.85097645 3.95052534 178.67254639 3.94352722 C171.52302287 3.92251968 164.37349921 3.91212816 157.22395325 3.90216064 C154.75952773 3.8981119 152.29510232 3.89399495 149.83067703 3.88981056 C138.25173934 3.87076645 126.67280799 3.85653357 115.09385765 3.84819859 C101.74177799 3.83842768 88.3898819 3.81210855 75.03785884 3.7716977 C64.70812271 3.74151006 54.37843405 3.72672721 44.04865468 3.72341758 C37.88347008 3.72107023 31.71846281 3.71215034 25.55332565 3.68695641 C19.75023739 3.66362439 13.9474426 3.65946324 8.14431953 3.66971779 C6.02076934 3.670212 3.89720445 3.66392564 1.77369881 3.65016174 C-12.78820392 3.47624281 -12.78820392 3.47624281 -26.67698479 7.37962055 C-28.83073425 8.14044189 -28.83073425 8.14044189 -31.83073425 7.14044189 C-30.83073425 5.14044189 -30.83073425 5.14044189 -28.20573425 4.10528564 C-26.53510925 3.59675049 -26.53510925 3.59675049 -24.83073425 3.07794189 C-23.73760925 2.73634033 -22.64448425 2.39473877 -21.51823425 2.04278564 C-14.40989516 0.30335097 -7.29292026 -0.00822709 0 0 Z " fill="#F49322" transform="translate(632.8307342529297,236.85955810546875)"/>
<path d="M0 0 C1.63878781 2.45818172 2.92281948 4.8141065 4.25 7.4375 C7.86703304 13.92502728 12.73680035 16.14218327 19.55991828 18.36281359 C23.37217845 19.35832138 27.01889514 19.42312619 30.94081116 19.39872742 C31.79379632 19.40537424 32.64678148 19.41202107 33.52561468 19.41886932 C36.35842806 19.43738968 39.19081498 19.43490146 42.02368164 19.43237305 C44.0643981 19.4413969 46.10510915 19.45172565 48.14581299 19.46325684 C53.66784561 19.49077959 59.18977525 19.50010497 64.71186757 19.50611091 C70.4894665 19.51550683 76.26698889 19.54171125 82.04454041 19.56611633 C92.97713457 19.60975142 103.90971385 19.6383168 114.84236854 19.66143972 C127.29220316 19.68850738 139.74196065 19.73241796 152.19174016 19.77772844 C177.7944516 19.87053191 203.39718723 19.94223237 229 20 C228.67 20.99 228.34 21.98 228 23 C201.96557063 23.04674933 175.93114756 23.08200324 149.89668465 23.10362434 C137.80806194 23.11393084 125.71946533 23.12797924 113.63085938 23.15087891 C103.09274238 23.17083192 92.5546443 23.18372099 82.01650894 23.18817699 C76.43820916 23.19078112 70.85996348 23.196889 65.28168106 23.21146011 C60.02702296 23.22507417 54.77244102 23.2292149 49.51776695 23.22621536 C47.59334461 23.22676381 45.66891961 23.23071839 43.74451256 23.23841095 C14.80764362 23.34837047 14.80764362 23.34837047 5.07421875 14.1875 C0.80721986 9.29929125 -0.12263874 6.62249214 0 0 Z " fill="#ED9328" transform="translate(486,707)"/>
<path d="M0 0 C2.1761143 -0.00307709 4.35221646 -0.00800593 6.5283258 -0.01352882 C27.54756557 -0.06385322 48.64142679 -0.06694983 69.5743711 2.09061241 C69.5743711 3.08061241 69.5743711 4.07061241 69.5743711 5.09061241 C70.5643711 5.42061241 71.5543711 5.75061241 72.5743711 6.09061241 C70.90754579 5.94660361 69.24091925 5.80029397 67.5743711 5.65311241 C66.6462461 5.57190147 65.7181211 5.49069054 64.7618711 5.40701866 C62.49242615 5.18174288 60.22829703 4.89986438 57.97025752 4.57988453 C53.32317982 3.99783123 48.73118497 3.94373693 44.05268836 3.94585228 C42.66128606 3.94056201 42.66128606 3.94056201 41.24177462 3.93516487 C38.15040513 3.92453628 35.05906651 3.92080722 31.96768165 3.91702843 C29.74479521 3.91071899 27.52191002 3.90395276 25.29902625 3.89676476 C20.52133613 3.8821271 15.74365078 3.87038971 10.96594787 3.86081696 C3.41595022 3.84534425 -4.13400581 3.82139816 -11.68397546 3.79591942 C-22.26329959 3.76084896 -32.84262705 3.72774159 -43.42196679 3.69779015 C-44.09253479 3.69588965 -44.76310278 3.69398916 -45.45399102 3.69203108 C-54.98416482 3.66516104 -64.51434379 3.64129109 -74.04452845 3.61864608 C-74.7166124 3.61704878 -75.38869635 3.61545148 -76.08114648 3.61380577 C-76.75240948 3.61221231 -77.42367248 3.61061884 -78.11527679 3.60897709 C-89.29930299 3.5822301 -100.48329295 3.54773009 -111.66727823 3.50715202 C-119.17799897 3.48033109 -126.68867203 3.46245659 -134.1994313 3.45111477 C-138.86162719 3.44201478 -143.52376479 3.42466656 -148.18592668 3.40493584 C-150.35355363 3.39743839 -152.5211955 3.39337796 -154.68883538 3.39294052 C-157.63896172 3.39186404 -160.58878886 3.37867117 -163.53886437 3.36235619 C-164.40402321 3.36497304 -165.26918204 3.36758989 -166.16055781 3.37028605 C-172.08330546 3.31882804 -172.08330546 3.31882804 -175.4256289 1.09061241 C-158.36359951 0.95695894 -141.30154838 0.82653877 -124.23946881 0.69946098 C-116.30810258 0.64032151 -108.37674528 0.58029846 -100.44540429 0.51785851 C-66.96391665 0.25489141 -33.48259625 0.03704319 0 0 Z " fill="#F48E1E" transform="translate(730.425628900528,485.909387588501)"/>
<path d="M0 0 C24.75738713 0.1074838 49.51474514 0.22028781 74.27207947 0.33933926 C85.76861603 0.39450045 97.2651557 0.4479533 108.76171875 0.49731445 C118.78791617 0.54036692 128.81409233 0.58669604 138.84025669 0.63687855 C144.14373139 0.66331099 149.44720234 0.68815783 154.7507019 0.70907402 C159.75422662 0.7288591 164.75771148 0.75306324 169.76119995 0.78049088 C171.58633693 0.78974698 173.41148257 0.79746165 175.2366333 0.80341911 C203.72218914 0.89916899 203.72218914 0.89916899 213 3 C213 3.33 213 3.66 213 4 C200.13 4 187.26 4 174 4 C174 4.33 174 4.66 174 5 C162.12 5 150.24 5 138 5 C138 4.67 138 4.34 138 4 C118.2 4 98.4 4 78 4 C78 4.33 78 4.66 78 5 C75.03 5 72.06 5 69 5 C69 4.34 69 3.68 69 3 C67.35 3.33 65.7 3.66 64 4 C64 4.33 64 4.66 64 5 C50.66666667 5 37.33333333 5 24 5 C24 4.67 24 4.34 24 4 C23.12263184 3.970271 23.12263184 3.970271 22.22753906 3.93994141 C19.56791975 3.84446519 16.90906162 3.73487858 14.25 3.625 C13.32960938 3.5940625 12.40921875 3.563125 11.4609375 3.53125 C10.12675781 3.47324219 10.12675781 3.47324219 8.765625 3.4140625 C7.94868164 3.3826416 7.13173828 3.3512207 6.29003906 3.31884766 C3.83167042 2.97656307 2.14240001 2.2260723 0 1 C0 0.67 0 0.34 0 0 Z " fill="#F69923" transform="translate(571,459)"/>
<path d="M0 0 C2 3 2 3 2 6 C2.66 6.33 3.32 6.66 4 7 C4 17.23 4 27.46 4 38 C3.34 38 2.68 38 2 38 C2.05027344 39.48886719 2.05027344 39.48886719 2.1015625 41.0078125 C1.99658854 45.13409647 1.35032755 48.88804442 0.375 52.875 C0.19678711 53.60968506 0.01857422 54.34437012 -0.16503906 55.10131836 C-6.77837703 81.37842644 -19.47113516 105.01867343 -39 124 C-39.99 123.67 -40.98 123.34 -42 123 C-41.27296875 122.30777344 -41.27296875 122.30777344 -40.53125 121.6015625 C-15.79663668 97.53288108 -0.61520002 62.66743192 0.07788086 28.11767578 C0.1095379 23.84909993 0.08776898 19.58105028 0.0625 15.3125 C0.05747144 13.82096506 0.05291095 12.32942846 0.04882812 10.83789062 C0.03793804 7.22522538 0.02074936 3.61262368 0 0 Z " fill="#F4921D" transform="translate(908,306)"/>
<path d="M0 0 C0.33 0 0.66 0 1 0 C4.29150117 35.29220702 -13.12330154 75.7312884 -33.7734375 103.70703125 C-34.38058594 104.34705078 -34.38058594 104.34705078 -35 105 C-35.66 105 -36.32 105 -37 105 C-35.633713 102.11919675 -34.06888188 99.55336508 -32.25 96.9375 C-14.18482358 70.03657144 -4.35250234 37.04871754 -1.375 4.9375 C-1 1 -1 1 0 0 Z " fill="#F3911D" transform="translate(860,567)"/>
<path d="M0 0 C42.24 0 84.48 0 128 0 C127.67 0.99 127.34 1.98 127 3 C111.03178657 2.91612935 95.06368606 2.82100688 79.09562302 2.71247292 C71.68144546 2.66234182 64.267279 2.61589898 56.85302734 2.578125 C50.39109383 2.54519353 43.9292462 2.50535597 37.46740746 2.45720994 C34.04561498 2.43195636 30.62387939 2.41017177 27.20201874 2.39665604 C23.38292557 2.37983593 19.56410938 2.35081051 15.74511719 2.31884766 C14.60935745 2.31668747 13.47359772 2.31452728 12.30342102 2.31230164 C11.26298141 2.30113815 10.22254181 2.28997467 9.15057373 2.2784729 C8.24721661 2.27294214 7.34385948 2.26741138 6.4131279 2.26171303 C4 2 4 2 0 0 Z " fill="#F48A16" transform="translate(587,727)"/>
<path d="M0 0 C7.21993376 0.73153514 11.44891613 4.63553142 17 9 C17.64324219 9.47566406 18.28648437 9.95132812 18.94921875 10.44140625 C30.39728787 19.38104065 39.97269787 35.81652891 43 50 C43.19622543 52.39930187 43.15391588 54.58865117 43 57 C41.32462605 54.48693907 40.49934846 52.83062181 39.58984375 50.04296875 C35.60771409 38.29166266 31.19834102 27.16342079 22.2265625 18.2421875 C20 16 20 16 20 14 C19.44054687 13.74089844 18.88109375 13.48179687 18.3046875 13.21484375 C15.73272681 11.85911532 13.47922113 10.26766017 11.125 8.5625 C7.51373583 5.99828876 4.03806877 3.80650445 0 2 C0 1.34 0 0.68 0 0 Z " fill="#F4901D" transform="translate(865,247)"/>
<path d="M0 0 C2.86314999 2.86314999 3.18783682 6.30246468 4.125 10.125 C8.86664169 28.144321 18.71483608 44.87413061 32 58 C32.99 58.495 32.99 58.495 34 59 C34 59.66 34 60.32 34 61 C34.57234375 61.268125 35.1446875 61.53625 35.734375 61.8125 C38.07884634 63.04132636 40.12404938 64.42522176 42.25 66 C42.95640625 66.515625 43.6628125 67.03125 44.390625 67.5625 C44.92171875 68.036875 45.4528125 68.51125 46 69 C46 69.66 46 70.32 46 71 C41.50491201 69.57011826 38.53668483 67.07612471 35.1875 63.875 C34.65979004 63.37709961 34.13208008 62.87919922 33.58837891 62.36621094 C32.53326846 61.36744603 31.48110777 60.3655544 30.43212891 59.36035156 C29.23883995 58.22686945 28.01899017 57.1214319 26.79296875 56.0234375 C19.27561067 49.07256058 13.75017291 40.01602495 8.828125 31.09765625 C7.34677565 27.94714222 7.34677565 27.94714222 5 27 C4.78935932 25.45530171 4.58767061 23.90910517 4.41796875 22.359375 C3.87567294 19.29819119 2.90701556 16.45277018 1.9375 13.5 C0.4181088 8.74436038 -0.46150959 4.96122811 0 0 Z " fill="#1E408B" transform="translate(142,636)"/>
<path d="M0 0 C18.25063575 -0.23467682 35.9543072 -0.09116034 54 3 C54 3.66 54 4.32 54 5 C54.928125 5.61875 55.85625 6.2375 56.8125 6.875 C59.68335152 8.78890102 61.3976646 9.98383925 63 13 C62.56640625 15.125 62.56640625 15.125 62 17 C61.38125 15.948125 60.7625 14.89625 60.125 13.8125 C56.48482939 8.68505969 50.9602147 6.0480549 44.9621582 4.46069336 C40.68252438 3.79509796 36.43095107 3.76261898 32.10546875 3.68359375 C31.15811356 3.66281265 30.21075836 3.64203156 29.23469543 3.62062073 C26.2190349 3.55542222 23.2032899 3.49637868 20.1875 3.4375 C18.13866326 3.39428652 16.08983496 3.35067134 14.04101562 3.30664062 C9.02742953 3.19977134 4.01375877 3.09842069 -1 3 C-0.67 2.01 -0.34 1.02 0 0 Z " fill="#234791" transform="translate(466,237)"/>
<path d="M0 0 C-9.22254145 20.34254358 -39.72921609 33.75995873 -59.1875 42 C-59.89430908 42.30317139 -60.60111816 42.60634277 -61.3293457 42.91870117 C-65.01063223 44.42909768 -68.00717342 45.37214694 -72 45 C-71 43 -71 43 -67.74609375 41.7734375 C-66.31088619 41.30425134 -64.87460551 40.83834021 -63.4375 40.375 C-49.83469598 35.76636827 -37.69077591 29.36313036 -26 21 C-25.3090625 20.52175781 -24.618125 20.04351563 -23.90625 19.55078125 C-16.65639306 14.36594503 -9.91969583 8.09786383 -3.765625 1.6640625 C-2 0 -2 0 0 0 Z " fill="#20448E" transform="translate(422,680)"/>
<path d="M0 0 C2.06277466 -0.36076355 2.06277466 -0.36076355 4.63330078 -0.34057617 C6.07456833 -0.34023628 6.07456833 -0.34023628 7.54495239 -0.33988953 C8.58457123 -0.32440567 9.62419006 -0.30892181 10.6953125 -0.29296875 C11.75789276 -0.28872391 12.82047302 -0.28447906 13.91525269 -0.28010559 C17.31875646 -0.26327389 20.72167433 -0.22561303 24.125 -0.1875 C26.42837688 -0.17245899 28.73176302 -0.15876958 31.03515625 -0.14648438 C36.69030505 -0.11335574 42.34511068 -0.06311197 48 0 C48 0.66 48 1.32 48 2 C49.98 2 51.96 2 54 2 C54 2.33 54 2.66 54 3 C35.52 3 17.04 3 -2 3 C-1.34 2.01 -0.68 1.02 0 0 Z " fill="#1E3F9D" transform="translate(381,237)"/>
<path d="M0 0 C12.89242926 -0.02327935 25.78485342 -0.04099399 38.6772995 -0.05181217 C44.66524504 -0.05700712 50.65317608 -0.06404246 56.64111328 -0.07543945 C62.43127076 -0.0863897 68.22141438 -0.09230229 74.01158142 -0.09487724 C76.20890012 -0.09670979 78.40621816 -0.10028777 80.60353088 -0.10573006 C112.28227044 -0.18099535 112.28227044 -0.18099535 122 2 C122 2.33 122 2.66 122 3 C114.08 3 106.16 3 98 3 C98 2.34 98 1.68 98 1 C65.66 1 33.32 1 0 1 C0 0.67 0 0.34 0 0 Z " fill="#D27712" transform="translate(662,460)"/>
<path d="M0 0 C0.33 0 0.66 0 1 0 C1.39361415 6.92104881 0.00129054 12.64680573 -2 19.25 C-2.31324219 20.29978027 -2.62648438 21.34956055 -2.94921875 22.43115234 C-7.57962724 37.57835323 -13.58788549 52.00963385 -21 66 C-21.66 66 -22.32 66 -23 66 C-21.79536712 62.05316261 -20.28857497 58.43475289 -18.4362793 54.74951172 C-10.58843617 39.03847891 -4.27919106 21.92838982 -1.4375 4.5625 C-1 2 -1 2 0 0 Z " fill="#26458E" transform="translate(469,580)"/>
<path d="M0 0 C11.49865847 1.03101296 21.32192755 9.76990927 29 18 C41.65541505 33.82418927 41.65541505 33.82418927 41 43 C38.45549765 40.45549765 37.45183863 37.83103704 35.9375 34.5625 C28.1458478 18.56586172 15.70348091 8.88265282 0 1 C0 0.67 0 0.34 0 0 Z " fill="#F69220" transform="translate(815,496)"/>
<path d="M0 0 C0.33 0 0.66 0 1 0 C1 18.15 1 36.3 1 55 C0.34 55 -0.32 55 -1 55 C-2.44592302 39.88417557 -3.47430434 25.14064819 -2 10 C-1.92346191 9.17902832 -1.84692383 8.35805664 -1.76806641 7.51220703 C-1.6860498 6.69478027 -1.6040332 5.87735352 -1.51953125 5.03515625 C-1.44452393 4.28758057 -1.3695166 3.54000488 -1.29223633 2.76977539 C-1 1 -1 1 0 0 Z " fill="#1E4192" transform="translate(141,580)"/>
<path d="M0 0 C1.26199219 -0.01224609 2.52398437 -0.02449219 3.82421875 -0.03710938 C10.32493735 -0.04734136 16.04022715 0.21379079 22.25 2.1875 C22.25 2.5175 22.25 2.8475 22.25 3.1875 C5.42 3.1875 -11.41 3.1875 -28.75 3.1875 C-23.06983719 -2.49266281 -7.60513598 0.00393234 0 0 Z " fill="#23459A" transform="translate(272.75,236.8125)"/>
<path d="M0 0 C-14.06066594 8.03466625 -31.09570195 9.92843382 -47 11 C-47 10.01 -47 9.02 -47 8 C-45.12634766 7.77957031 -45.12634766 7.77957031 -43.21484375 7.5546875 C-31.99585082 6.13952247 -21.25823753 4.00198654 -10.37866211 0.89404297 C-8.99626343 0.50563232 -8.99626343 0.50563232 -7.5859375 0.109375 C-6.7717334 -0.12813477 -5.9575293 -0.36564453 -5.11865234 -0.61035156 C-3 -1 -3 -1 0 0 Z " fill="#F3911F" transform="translate(763,719)"/>
<path d="M0 0 C3.9652407 -0.02497729 7.93045005 -0.0429894 11.89575195 -0.05493164 C13.89731458 -0.06235104 15.89885533 -0.07506659 17.90039062 -0.08789062 C24.69125925 -0.10499609 31.27165501 0.06201996 38 1 C38 1.66 38 2.32 38 3 C25.79 3 13.58 3 1 3 C0.67 2.01 0.34 1.02 0 0 Z " fill="#214896" transform="translate(319,237)"/>
<path d="M0 0 C16.34705338 -0.20181547 32.66634578 0.41431871 49 1 C45.30968118 3.37642639 41.73022632 3.27433642 37.48828125 3.23046875 C36.39679024 3.22978142 36.39679024 3.22978142 35.2832489 3.2290802 C33.74423593 3.22606408 32.20522585 3.21819692 30.66625977 3.20581055 C28.33794025 3.18769791 26.01002288 3.18530015 23.68164062 3.18554688 C3.1394777 3.1394777 3.1394777 3.1394777 0 0 Z " fill="#1E4693" transform="translate(260,731)"/>
<path d="M0 0 C-0.6197168 0.30695801 -1.23943359 0.61391602 -1.87792969 0.93017578 C-3.25453761 1.62418129 -4.61492515 2.35173719 -5.953125 3.1171875 C-8.37212225 4.16049547 -10.12846484 4.20210398 -12.75 4.125 C-13.54921875 4.10695313 -14.3484375 4.08890625 -15.171875 4.0703125 C-15.77515625 4.04710937 -16.3784375 4.02390625 -17 4 C-17 4.33 -17 4.66 -17 5 C-25.91 5 -34.82 5 -44 5 C-44 4.67 -44 4.34 -44 4 C-37.565 3.505 -37.565 3.505 -31 3 C-34.3 2.67 -37.6 2.34 -41 2 C-41 1.67 -41 1.34 -41 1 C-37.08977956 0.85477648 -33.17946259 0.71251362 -29.26904297 0.57275391 C-27.30040145 0.50181616 -25.33183985 0.42867143 -23.36328125 0.35546875 C-15.57125175 0.07859461 -7.79685863 -0.06561171 0 0 Z " fill="#F8A01B" transform="translate(804,459)"/>
<path d="M0 0 C0.495 1.485 0.495 1.485 1 3 C-8.37836416 11.52844991 -18.01559538 18.66187228 -29 25 C-29.72960937 25.44085937 -30.45921875 25.88171875 -31.2109375 26.3359375 C-33.49418195 27.18342998 -34.7043931 26.65834705 -37 26 C-35.92363281 25.39414062 -34.84726562 24.78828125 -33.73828125 24.1640625 C-21.49239823 17.1752647 -10.58130482 9.35092054 0 0 Z " fill="#F38F1C" transform="translate(809,687)"/>
<path d="M0 0 C2.31 0.33 4.62 0.66 7 1 C3.88572128 3.07618582 0.7634303 4.53782677 -2.625 6.125 C-14.90506246 12.15043417 -23.16719658 21.04248357 -28 34 C-28.66 34 -29.32 34 -30 34 C-27.9941313 22.96772216 -19.92620826 13.39616834 -11 7 C-7.40986878 4.83290006 -3.75996118 2.85538271 0 1 C0 0.67 0 0.34 0 0 Z " fill="#1E428E" transform="translate(232,240)"/>
<path d="M0 0 C0.33 0 0.66 0 1 0 C1.19618586 5.5938601 0.47753108 10.63702209 -0.64453125 16.109375 C-0.81498459 16.9580011 -0.98543793 17.8066272 -1.16105652 18.68096924 C-1.5215593 20.46332471 -1.88565877 22.24495612 -2.25317383 24.02587891 C-2.81311612 26.75300073 -3.35333537 29.48356326 -3.89257812 32.21484375 C-4.24620447 33.95076395 -4.6009822 35.68645009 -4.95703125 37.421875 C-5.11653763 38.23750916 -5.27604401 39.05314331 -5.44038391 39.89349365 C-6.28120895 43.87835261 -6.93918813 46.3042977 -10 49 C-8.39428367 38.21550807 -6.61442927 27.59337141 -4 17 C-3.26475902 13.89725555 -2.53937425 10.79221342 -1.8125 7.6875 C-1.20914635 5.12480763 -0.60454503 2.56241167 0 0 Z " fill="#284690" transform="translate(505,404)"/>
<path d="M0 0 C1.63878781 2.45818172 2.92281948 4.8141065 4.25 7.4375 C7.8642369 13.92001212 12.80037913 16.2584164 19.67578125 18.40625 C23.1096197 19.28346587 26.47225708 19.6792961 30 20 C30 20.66 30 21.32 30 22 C20.80374465 22.70439403 13.31413309 20.95826052 6.0625 15.0625 C2.14434553 11.36612785 0.08509668 8.7302991 -0.1875 3.1875 C-0.125625 2.135625 -0.06375 1.08375 0 0 Z " fill="#F1901F" transform="translate(486,707)"/>
<path d="M0 0 C0.66 0 1.32 0 2 0 C1 3 1 3 -0.77734375 4.16796875 C-1.49019531 4.50441406 -2.20304688 4.84085937 -2.9375 5.1875 C-4.00291016 5.70376953 -4.00291016 5.70376953 -5.08984375 6.23046875 C-7 7 -7 7 -9 7 C-9 7.99 -9 8.98 -9 10 C-9.556875 10.04898437 -10.11375 10.09796875 -10.6875 10.1484375 C-14.56434051 10.52826309 -18.24808183 10.99592649 -22 12.0625 C-26.34226903 13.24436758 -30.52951787 13.18627009 -35 13 C-32.3297937 11.21986246 -30.96861304 10.59824563 -27.97265625 9.88671875 C-26.79195557 9.59619629 -26.79195557 9.59619629 -25.58740234 9.29980469 C-24.33757568 8.99671387 -24.33757568 8.99671387 -23.0625 8.6875 C-10.66054488 6.09265983 -10.66054488 6.09265983 0 0 Z " fill="#F6931D" transform="translate(841,446)"/>
<path d="M0 0 C0.58007812 0.22558594 1.16015625 0.45117188 1.7578125 0.68359375 C-3.9921875 5.68359375 -3.9921875 5.68359375 -6.2421875 5.68359375 C-6.4690625 6.40546875 -6.6959375 7.12734375 -6.9296875 7.87109375 C-8.2421875 10.68359375 -8.2421875 10.68359375 -10.5546875 12.87109375 C-14.17792857 16.66285766 -16.08100587 20.94738721 -18.2421875 25.68359375 C-19.38619696 22.05432237 -18.9621851 20.08318329 -17.3125 16.60546875 C-14.30249057 11.20063431 -6.9605017 -0.98223108 0 0 Z " fill="#F59221" transform="translate(597.2421875,246.31640625)"/>
<path d="M0 0 C3.79590791 1.09881545 7.1926092 2.56345373 10.6875 4.375 C19.31866776 8.75499558 27.96418571 11.39283714 37.4453125 13.2890625 C38.28835937 13.52367187 39.13140625 13.75828125 40 14 C40.495 14.99 40.495 14.99 41 16 C34.03628799 15.59963924 28.05680298 14.33104205 21.5625 11.8125 C20.74281738 11.50223877 19.92313477 11.19197754 19.07861328 10.87231445 C2.158126 4.31625201 2.158126 4.31625201 0 0 Z " fill="#1F4390" transform="translate(195,711)"/>
<path d="M0 0 C8.91 0 17.82 0 27 0 C27.33 0.99 27.66 1.98 28 3 C18.43 3 8.86 3 -1 3 C-0.67 2.01 -0.34 1.02 0 0 Z " fill="#173C9F" transform="translate(466,237)"/>
<path d="M0 0 C0.33 0 0.66 0 1 0 C1.49772737 8.04659255 -0.35687594 15.67402434 -2 23.5 C-2.28977999 24.90870676 -2.57884871 26.31756004 -2.8671875 27.7265625 C-3.56992562 31.15277103 -4.28229258 34.5768919 -5 38 C-5.66 38 -6.32 38 -7 38 C-6.49808495 29.38140157 -4.88857981 21.20983886 -2.9375 12.8125 C-2.65583984 11.57435547 -2.37417969 10.33621094 -2.08398438 9.06054688 C-1.39564548 6.03885578 -0.70087909 3.01880236 0 0 Z " fill="#274791" transform="translate(513,364)"/>
<path d="M0 0 C0.33 0 0.66 0 1 0 C1.36777087 6.61987565 -0.0197057 12.68048046 -1.4375 19.125 C-1.78264648 20.73181641 -1.78264648 20.73181641 -2.13476562 22.37109375 C-2.5623555 24.36155558 -2.99291152 26.35138439 -3.42749023 28.34033203 C-3.97613659 30.88913945 -4.49532349 33.44216161 -5 36 C-5.66 35.67 -6.32 35.34 -7 35 C-6.42553637 27.33584062 -5.10379471 19.94784152 -3.5 12.4375 C-3.27441406 11.34630859 -3.04882812 10.25511719 -2.81640625 9.13085938 C-1.13188758 1.13188758 -1.13188758 1.13188758 0 0 Z " fill="#204492" transform="translate(183,366)"/>
<path d="M0 0 C0.66 0 1.32 0 2 0 C2.13342272 4.95609814 1.68703376 9.3941903 0.6875 14.24609375 C0.55432373 14.90207047 0.42114746 15.55804718 0.28393555 16.23390198 C-0.13766945 18.30313474 -0.56865529 20.37027807 -1 22.4375 C-1.28968825 23.85078334 -1.57875657 25.2641939 -1.8671875 26.67773438 C-2.57097041 30.11998833 -3.28317258 33.56043583 -4 37 C-6.49250217 33.26124674 -5.99340277 32.34225185 -5.13671875 28.046875 C-4.90919922 26.86996094 -4.68167969 25.69304688 -4.44726562 24.48046875 C-4.07118164 22.63388672 -4.07118164 22.63388672 -3.6875 20.75 C-3.21112953 18.3283431 -2.73583732 15.90647379 -2.26171875 13.484375 C-2.03790527 12.35451172 -1.8140918 11.22464844 -1.58349609 10.06054688 C-0.94537527 6.71348299 -0.42498089 3.379848 0 0 Z " fill="#294891" transform="translate(482,512)"/>
<path d="M0 0 C-0.99 0.7734375 -0.99 0.7734375 -2 1.5625 C-2.99 2.366875 -3.98 3.17125 -5 4 C-5.639375 4.50917969 -6.27875 5.01835937 -6.9375 5.54296875 C-11.2058919 9.07570977 -14.2732787 12.46188412 -16.9921875 17.30078125 C-18 19 -18 19 -20 21 C-20.57850478 17.77690196 -20.38003995 15.65199514 -18.72265625 12.80859375 C-13.97182939 6.44183939 -8.52428743 -0.57516818 0 0 Z " fill="#F69320" transform="translate(541,491)"/>
<path d="M0 0 C0.66 0 1.32 0 2 0 C0.35411783 11.58351924 -1.692201 22.76691609 -5 34 C-5.33 34 -5.66 34 -6 34 C-6.38465895 27.18463243 -4.94593706 20.83790678 -3.5625 14.1875 C-3.33240234 13.04345703 -3.10230469 11.89941406 -2.86523438 10.72070312 C-1.14532343 2.29064685 -1.14532343 2.29064685 0 0 Z " fill="#204290" transform="translate(201,275)"/>
<path d="M0 0 C0.33 0 0.66 0 1 0 C1.336099 7.22612844 0.0711838 13.87313588 -1.375 20.9375 C-1.59671875 22.08541016 -1.8184375 23.23332031 -2.046875 24.41601562 C-2.26601563 25.50462891 -2.48515625 26.59324219 -2.7109375 27.71484375 C-2.90993652 28.70605225 -3.10893555 29.69726074 -3.31396484 30.71850586 C-3.54035645 31.47139893 -3.76674805 32.22429199 -4 33 C-4.99 33.495 -4.99 33.495 -6 34 C-5.65010587 26.52976033 -4.39681704 19.2695445 -3 11.9375 C-2.82178711 10.99688721 -2.64357422 10.05627441 -2.45996094 9.0871582 C-1.1323019 2.2646038 -1.1323019 2.2646038 0 0 Z " fill="#27458F" transform="translate(531,275)"/>
<path d="M0 0 C0.33 0 0.66 0 1 0 C1.37322228 6.5780426 -0.03250849 12.54796264 -1.5 18.9375 C-1.73847656 20.00291016 -1.97695312 21.06832031 -2.22265625 22.16601562 C-2.80850659 24.77890813 -3.40111458 27.39007007 -4 30 C-4.33 30 -4.66 30 -5 30 C-5.2139283 23.20950184 -4.47609401 17.13264178 -3.0625 10.5 C-2.88009766 9.59507812 -2.69769531 8.69015625 -2.50976562 7.7578125 C-1.14437973 1.14437973 -1.14437973 1.14437973 0 0 Z " fill="#1F4290" transform="translate(150,532)"/>
<path d="M0 0 C6.6 0 13.2 0 20 0 C20 0.99 20 1.98 20 3 C13.4 3 6.8 3 0 3 C0 2.01 0 1.02 0 0 Z " fill="#193CA0" transform="translate(438,237)"/>
<path d="M0 0 C0.33 0 0.66 0 1 0 C0.51032129 5.70862287 -0.14209765 11.3882124 -0.9375 17.0625 C-1.09089844 18.16722656 -1.24429687 19.27195312 -1.40234375 20.41015625 C-1.59957031 21.26480469 -1.79679687 22.11945312 -2 23 C-2.66 23.33 -3.32 23.66 -4 24 C-5.12393951 19.13462426 -4.73898535 15.12268865 -3.6875 10.3125 C-3.55666016 9.64927734 -3.42582031 8.98605469 -3.29101562 8.30273438 C-2.60015886 4.98862436 -1.90241501 2.85362252 0 0 Z " fill="#F19327" transform="translate(502,602)"/>
<path d="M0 0 C7.05985273 -0.11766421 13.97252688 0.33411422 21 1 C21 1.99 21 2.98 21 4 C21.99 4.33 22.98 4.66 24 5 C17.64780958 4.45118943 11.32126362 3.83488387 5 3 C5 2.34 5 1.68 5 1 C3.35 1 1.7 1 0 1 C0 0.67 0 0.34 0 0 Z " fill="#F89824" transform="translate(779,487)"/>
<path d="M0 0 C0.33 0 0.66 0 1 0 C0.49451662 8.54092606 -1.06734291 16.67377292 -3 25 C-3.66 24.34 -4.32 23.68 -5 23 C-4.6201876 15.02393951 -2.51607685 7.54823055 0 0 Z " fill="#F49021" transform="translate(559,361)"/>
<path d="M0 0 C0.66 0.33 1.32 0.66 2 1 C0.25136309 3.39683852 -1.49885918 5.79249188 -3.25 8.1875 C-3.74113281 8.86103516 -4.23226563 9.53457031 -4.73828125 10.22851562 C-7.41479458 13.88641718 -10.13438291 17.48620762 -13 21 C-13.99 20.67 -14.98 20.34 -16 20 C-15.34773438 19.2265625 -14.69546875 18.453125 -14.0234375 17.65625 C-9.17860776 11.88991992 -4.41748109 6.10546167 0 0 Z " fill="#23448D" transform="translate(438,658)"/>
<path d="M0 0 C0.33 0 0.66 0 1 0 C1.41467342 8.01701946 -0.14060121 15.21930149 -2 23 C-2.66 23 -3.32 23 -4 23 C-3.54593375 15.04601192 -2.12888539 7.67202093 0 0 Z " fill="#264691" transform="translate(493,462)"/>
<path d="M0 0 C0.33 0 0.66 0 1 0 C1.2361959 6.40353322 0.823321 11.84629161 -1 18 C-1.66 18 -2.32 18 -3 18 C-3.31985731 11.28299653 -2.4793824 6.24273068 0 0 Z " fill="#F5951F" transform="translate(515,534)"/>
<path d="M0 0 C7.59 0 15.18 0 23 0 C17.95391625 3.36405584 11.3760687 3.50872268 5.43359375 2.61328125 C3.60162791 2.15119326 1.7958135 1.58709287 0 1 C0 0.67 0 0.34 0 0 Z " fill="#2D4C9F" transform="translate(287,237)"/>
<path d="M0 0 C4.62 0 9.24 0 14 0 C13.67 0.99 13.34 1.98 13 3 C8.71 3 4.42 3 0 3 C0 2.01 0 1.02 0 0 Z " fill="#27449B" transform="translate(360,237)"/>
<path d="M0 0 C0.33 0 0.66 0 1 0 C1 5.61 1 11.22 1 17 C0.67 16.34 0.34 15.68 0 15 C-0.99 15 -1.98 15 -3 15 C-3.625 12.6875 -3.625 12.6875 -4 10 C-3.34 9.01 -2.68 8.02 -2 7 C-1.67 7 -1.34 7 -1 7 C-0.67 4.69 -0.34 2.38 0 0 Z " fill="#CE9033" transform="translate(484,689)"/>
<path d="M0 0 C0.66 0 1.32 0 2 0 C1 3 1 3 -0.77734375 4.16796875 C-1.49019531 4.50441406 -2.20304688 4.84085937 -2.9375 5.1875 C-4.00291016 5.70376953 -4.00291016 5.70376953 -5.08984375 6.23046875 C-7 7 -7 7 -9 7 C-9 7.99 -9 8.98 -9 10 C-9.99 10 -10.98 10 -12 10 C-11.8125 7.640625 -11.8125 7.640625 -11 5 C-8.75 3.671875 -8.75 3.671875 -6 2.75 C-2.73650291 1.8165647 -2.73650291 1.8165647 0 0 Z " fill="#E18A18" transform="translate(841,446)"/>
<path d="M0 0 C0.66 0 1.32 0 2 0 C3.80317693 5.29683222 4.77703544 10.38934703 4 16 C3.34 16.66 2.68 17.32 2 18 C1.34 12.06 0.68 6.12 0 0 Z " fill="#2F4C92" transform="translate(530,256)"/>
<path d="M0 0 C-2.76622859 2.76622859 -5.03421318 2.69104973 -8.875 3.25 C-10.72738281 3.53617188 -10.72738281 3.53617188 -12.6171875 3.828125 C-15.93348187 3.99662033 -17.29875132 3.81893128 -20 2 C-13.25846717 0.74158054 -6.86515862 -0.26404456 0 0 Z " fill="#1D3F91" transform="translate(332,729)"/>
<path d="M0 0 C0.33 0.99 0.66 1.98 1 3 C-0.65234375 5.48046875 -0.65234375 5.48046875 -2.9375 8.1875 C-3.68902344 9.08855469 -4.44054687 9.98960937 -5.21484375 10.91796875 C-5.80394531 11.60503906 -6.39304687 12.29210937 -7 13 C-7.99 12.67 -8.98 12.34 -10 12 C-6.7 8.04 -3.4 4.08 0 0 Z " fill="#F6921A" transform="translate(821,673)"/>
<path d="M0 0 C0.33 0 0.66 0 1 0 C1.31985731 6.71700347 0.4793824 11.75726932 -2 18 C-2.33 18 -2.66 18 -3 18 C-2.51679152 11.7945858 -1.66681876 6.00054754 0 0 Z " fill="#24448C" transform="translate(474,555)"/>
<path d="M0 0 C0.33 0 0.66 0 1 0 C0.85936865 2.29199177 0.71234057 4.58359186 0.5625 6.875 C0.48128906 8.15117187 0.40007812 9.42734375 0.31640625 10.7421875 C0 14 0 14 -1 16 C-1.66 16 -2.32 16 -3 16 C-2.57910004 10.39538469 -2.08386889 5.27913453 0 0 Z " fill="#224594" transform="translate(156,502)"/>
<path d="M0 0 C0.66 0 1.32 0 2 0 C0.52041491 3.9115468 -1.53957471 5.2274524 -5.125 7.25 C-6.49011719 8.03117187 -6.49011719 8.03117187 -7.8828125 8.828125 C-8.58148437 9.21484375 -9.28015625 9.6015625 -10 10 C-10.33 9.01 -10.66 8.02 -11 7 C-10.28972656 6.57847656 -9.57945312 6.15695312 -8.84765625 5.72265625 C-7.92855469 5.17480469 -7.00945313 4.62695312 -6.0625 4.0625 C-5.14597656 3.51722656 -4.22945312 2.97195313 -3.28515625 2.41015625 C-1.11587323 1.19267827 -1.11587323 1.19267827 0 0 Z " fill="#F4901D" transform="translate(854,438)"/>
<path d="M0 0 C0 0.66 0 1.32 0 2 C-5.57067277 3.59162079 -10.21101581 4.20674944 -16 4 C-12.11376605 0.11376605 -5.32712984 -0.3436858 0 0 Z " fill="#1C3E97" transform="translate(349,725)"/>
<path d="M0 0 C2 0.33333333 4 0.66666667 6 1 C6 1.33 6 1.66 6 2 C0.72 2 -4.56 2 -10 2 C-10.33 1.34 -10.66 0.68 -11 0 C-6.97973467 -1.06418788 -4.0547359 -0.82749712 0 0 Z " fill="#174291" transform="translate(289,238)"/>
<path d="M0 0 C2.80561393 1.40280696 3.00680507 3.0509005 4.125 5.9375 C4.47820312 6.83339844 4.83140625 7.72929688 5.1953125 8.65234375 C6 11 6 11 6 13 C3.525 12.01 3.525 12.01 1 11 C0.67 7.37 0.34 3.74 0 0 Z " fill="#18407F" transform="translate(146,652)"/>
<path d="M0 0 C0.59167969 0.33773438 1.18335938 0.67546875 1.79296875 1.0234375 C5.78450953 3.27641158 9.66558593 5.4619821 14 7 C14 7.33 14 7.66 14 8 C8.74721485 8.65659814 5.8475921 7.07349844 1.5390625 4.38671875 C1.03117188 3.92910156 0.52328125 3.47148437 0 3 C0 2.01 0 1.02 0 0 Z " fill="#F6931F" transform="translate(554,451)"/>
<path d="M0 0 C0.33 0 0.66 0 1 0 C1.25706972 5.91260345 0.2982126 11.23918159 -1 17 C-1.33 17 -1.66 17 -2 17 C-2.05418326 14.91695462 -2.09287551 12.83350232 -2.125 10.75 C-2.14820313 9.58984375 -2.17140625 8.4296875 -2.1953125 7.234375 C-2.0103949 4.17213954 -1.60823023 2.55797249 0 0 Z " fill="#F48E1A" transform="translate(494,643)"/>
<path d="M0 0 C0.66 0 1.32 0 2 0 C2.22577402 5.4185766 1.46670113 9.77487721 0 15 C-0.33 15 -0.66 15 -1 15 C-1.18451025 4.44191344 -1.18451025 4.44191344 0 0 Z " fill="#1F428F" transform="translate(143,563)"/>
<path d="M0 0 C0.66 0 1.32 0 2 0 C2.1799928 5.21979128 1.97094808 9.07262981 0 14 C-0.33 14 -0.66 14 -1 14 C-1.18451025 4.58997722 -1.18451025 4.58997722 0 0 Z " fill="#F5901F" transform="translate(564,330)"/>
<path d="M0 0 C0.33 0.99 0.66 1.98 1 3 C-5.27 3 -11.54 3 -18 3 C-18 2.67 -18 2.34 -18 2 C-17.24074219 1.93941406 -16.48148437 1.87882813 -15.69921875 1.81640625 C-14.70535156 1.73261719 -13.71148437 1.64882812 -12.6875 1.5625 C-11.70136719 1.48128906 -10.71523438 1.40007812 -9.69921875 1.31640625 C-6.20718379 0.90706496 -3.59803152 0 0 0 Z " fill="#18438E" transform="translate(314,237)"/>
<path d="M0 0 C2.97 0 5.94 0 9 0 C9.33 0.99 9.66 1.98 10 3 C6.37 3 2.74 3 -1 3 C-0.67 2.01 -0.34 1.02 0 0 Z " fill="#1A4A8F" transform="translate(466,237)"/>
<path d="M0 0 C0.33 0 0.66 0 1 0 C0.88617347 1.95901454 0.75858875 3.9172338 0.625 5.875 C0.55539062 6.96554687 0.48578125 8.05609375 0.4140625 9.1796875 C0 12 0 12 -2 14 C-2.05410687 12.22950311 -2.09284119 10.45853151 -2.125 8.6875 C-2.14820313 7.70136719 -2.17140625 6.71523438 -2.1953125 5.69921875 C-2 3 -2 3 0 0 Z " fill="#F79320" transform="translate(490,664)"/>
<path d="M0 0 C0.33 0 0.66 0 1 0 C0.88617347 1.95901454 0.75858875 3.9172338 0.625 5.875 C0.55539062 6.96554687 0.48578125 8.05609375 0.4140625 9.1796875 C0 12 0 12 -2 14 C-2.05410687 12.22950311 -2.09284119 10.45853151 -2.125 8.6875 C-2.14820313 7.70136719 -2.17140625 6.71523438 -2.1953125 5.69921875 C-2 3 -2 3 0 0 Z " fill="#F49221" transform="translate(505,586)"/>
<path d="M0 0 C0.33 0 0.66 0 1 0 C0.8858134 1.93816735 0.75826577 3.87555099 0.625 5.8125 C0.55539062 6.89144531 0.48578125 7.97039063 0.4140625 9.08203125 C0 12 0 12 -2 15 C-2 11.04 -2 7.08 -2 3 C-1.34 3 -0.68 3 0 3 C0 2.01 0 1.02 0 0 Z " fill="#F69319" transform="translate(509,565)"/>
<path d="M0 0 C0.33 0 0.66 0 1 0 C1.1799928 5.21979128 0.97094808 9.07262981 -1 14 C-1.33 14 -1.66 14 -2 14 C-2.05437607 12.41705218 -2.09296271 10.83355744 -2.125 9.25 C-2.14820313 8.36828125 -2.17140625 7.4865625 -2.1953125 6.578125 C-1.99139502 3.8864142 -1.36551721 2.30095026 0 0 Z " fill="#F7911C" transform="translate(573,290)"/>
<path d="M0 0 C0.33 0 0.66 0 1 0 C1.22577402 5.4185766 0.46670113 9.77487721 -1 15 C-1.33 15 -1.66 15 -2 15 C-2.05429959 13.25034642 -2.09292823 11.50020213 -2.125 9.75 C-2.15980469 8.28820312 -2.15980469 8.28820312 -2.1953125 6.796875 C-1.99862781 3.9803502 -1.44568916 2.39050964 0 0 Z " fill="#F58F1D" transform="translate(497,627)"/>
<path d="M0 0 C0.33 0 0.66 0 1 0 C1.28571429 8.57142857 1.28571429 8.57142857 -1 12 C-1.33 12 -1.66 12 -2 12 C-2.05422947 10.5629191 -2.09289723 9.12524538 -2.125 7.6875 C-2.14820313 6.88699219 -2.17140625 6.08648437 -2.1953125 5.26171875 C-2 3 -2 3 0 0 Z " fill="#F6961E" transform="translate(576,275)"/>
<path d="M0 0 C0.33 0 0.66 0 1 0 C1.21192221 5.19209404 0.5912689 9.126739 -1 14 C-1.33 14 -1.66 14 -2 14 C-2.05437607 12.41705218 -2.09296271 10.83355744 -2.125 9.25 C-2.14820313 8.36828125 -2.17140625 7.4865625 -2.1953125 6.578125 C-1.99139502 3.8864142 -1.36551721 2.30095026 0 0 Z " fill="#F6901B" transform="translate(551,402)"/>
<path d="M0 0 C0.33 0 0.66 0 1 0 C0.88610125 1.79240663 0.75852313 3.58394835 0.625 5.375 C0.52058594 6.87160156 0.52058594 6.87160156 0.4140625 8.3984375 C0 11 0 11 -2 13 C-2.05416188 11.39620659 -2.09286638 9.79188594 -2.125 8.1875 C-2.14820313 7.29417969 -2.17140625 6.40085937 -2.1953125 5.48046875 C-2 3 -2 3 0 0 Z " fill="#F5951D" transform="translate(568,316)"/>
<path d="M0 0 C0.33 0 0.66 0 1 0 C0.88658363 2.31309705 0.75896193 4.62550185 0.625 6.9375 C0.52058594 8.86916016 0.52058594 8.86916016 0.4140625 10.83984375 C0.27742188 11.88269531 0.14078125 12.92554688 0 14 C-0.99 14.495 -0.99 14.495 -2 15 C-2.625 12.1875 -2.625 12.1875 -3 9 C-2.34 8.01 -1.68 7.02 -1 6 C-0.60986284 4.0103005 -0.26797351 2.00980131 0 0 Z " fill="#FA9415" transform="translate(500,611)"/>
<path d="M0 0 C0.33 0 0.66 0 1 0 C0.88557539 1.60495567 0.75805306 3.20898119 0.625 4.8125 C0.55539062 5.70582031 0.48578125 6.59914063 0.4140625 7.51953125 C0 10 0 10 -2 13 C-3.71050559 8.02398374 -2.00885647 4.57383705 0 0 Z " fill="#F9961B" transform="translate(562,347)"/>
<path d="M0 0 C2 1 2 1 2.8515625 3.06640625 C3.10679687 3.89011719 3.36203125 4.71382813 3.625 5.5625 C3.88539063 6.38878906 4.14578125 7.21507812 4.4140625 8.06640625 C4.60742188 8.70449219 4.80078125 9.34257812 5 10 C2 9 2 9 0.25 5.5625 C-0.1625 4.386875 -0.575 3.21125 -1 2 C-0.67 1.34 -0.34 0.68 0 0 Z " fill="#F6971C" transform="translate(547,439)"/>
<path d="M0 0 C4.25219775 0.47246642 6.37314725 2.77272377 9 6 C8.63671875 8.16796875 8.63671875 8.16796875 8 10 C7.67386719 9.52949219 7.34773437 9.05898437 7.01171875 8.57421875 C6.35623047 7.64029297 6.35623047 7.64029297 5.6875 6.6875 C5.25824219 6.07261719 4.82898438 5.45773438 4.38671875 4.82421875 C3.04070466 3.05354669 1.60807197 1.53261991 0 0 Z " fill="#1D3D93" transform="translate(520,244)"/>
<path d="M0 0 C1.485 0.99 1.485 0.99 3 2 C3.29296875 4.3828125 3.29296875 4.3828125 3.1875 7.125 C3.16042969 8.03507813 3.13335938 8.94515625 3.10546875 9.8828125 C3.07066406 10.58148437 3.03585937 11.28015625 3 12 C0.7655402 7.96707255 0.45503257 4.55032566 0 0 Z " fill="#F69019" transform="translate(856,540)"/>
<path d="M0 0 C2.97 0 5.94 0 9 0 C9 0.66 9 1.32 9 2 C5.7 2.33 2.4 2.66 -1 3 C-0.67 2.01 -0.34 1.02 0 0 Z " fill="#F99A1E" transform="translate(543,488)"/>
<path d="M0 0 C0.66 0.33 1.32 0.66 2 1 C0.8803014 2.00593243 -0.2459412 3.0045849 -1.375 4 C-2.00148438 4.556875 -2.62796875 5.11375 -3.2734375 5.6875 C-5 7 -5 7 -7 7 C-5.66667905 3.00003714 -3.5042173 2.16217663 0 0 Z " fill="#F48E1A" transform="translate(864,431)"/>
<path d="M0 0 C0.66 0.33 1.32 0.66 2 1 C1.34 4.3 0.68 7.6 0 11 C-0.33 11 -0.66 11 -1 11 C-1.02688151 9.35425434 -1.04634123 7.70838587 -1.0625 6.0625 C-1.07410156 5.14597656 -1.08570313 4.22945312 -1.09765625 3.28515625 C-1 1 -1 1 0 0 Z " fill="#F7911F" transform="translate(519,513)"/>
<path d="M0 0 C0.598125 0.20625 1.19625 0.4125 1.8125 0.625 C-1.1575 3.1 -1.1575 3.1 -4.1875 5.625 C-4.8475 5.295 -5.5075 4.965 -6.1875 4.625 C-5.03076352 1.15479057 -3.91311293 -0.67081936 0 0 Z " fill="#F9921E" transform="translate(597.1875,246.375)"/>
<path d="M0 0 C2.97 0 5.94 0 9 0 C9 0.99 9 1.98 9 3 C6.03 2.67 3.06 2.34 0 2 C0 1.34 0 0.68 0 0 Z " fill="#255094" transform="translate(429,237)"/>
<path d="M0 0 C2.97 0.33 5.94 0.66 9 1 C9 1.99 9 2.98 9 4 C6.03 3.01 3.06 2.02 0 1 C0 0.67 0 0.34 0 0 Z " fill="#F89521" transform="translate(804,492)"/>
<path d="M0 0 C3.96 0 7.92 0 12 0 C12 0.99 12 1.98 12 3 C11.01 3 10.02 3 9 3 C9 2.34 9 1.68 9 1 C6.03 1 3.06 1 0 1 C0 0.67 0 0.34 0 0 Z " fill="#2F539E" transform="translate(348,237)"/>
<path d="M0 0 C2.31 0 4.62 0 7 0 C6.01 1.485 6.01 1.485 5 3 C1.875 3.1875 1.875 3.1875 -1 3 C-0.67 2.01 -0.34 1.02 0 0 Z " fill="#1B508F" transform="translate(374,237)"/>
<path d="M0 0 C0.66 0.66 1.32 1.32 2 2 C1.9765625 4.1640625 1.9765625 4.1640625 1.625 6.625 C1.51414062 7.44226563 1.40328125 8.25953125 1.2890625 9.1015625 C1.19367188 9.72804688 1.09828125 10.35453125 1 11 C-1.30903272 7.01647791 -0.86516528 4.49885947 0 0 Z " fill="#2D4D96" transform="translate(475,548)"/>
</svg>
